Coordinates
version=1
nRows=14
nColumns=36
inDegrees=yes

Units are S.I. units (second, meters, Newtons, ...)
If the header above contains a line with 'inDegrees', this indicates whether rotational values are in degrees (yes) or radians (no).

endheader
time	pelvis_tilt	pelvis_list	pelvis_rotation	pelvis_tx	pelvis_ty	pelvis_tz	hip_flexion_r	hip_adduction_r	hip_rotation_r	knee_angle_r	knee_angle_r_beta	ankle_angle_r	subtalar_angle_r	mtp_angle_r	hip_flexion_l	hip_adduction_l	hip_rotation_l	knee_angle_l	knee_angle_l_beta	ankle_angle_l	subtalar_angle_l	mtp_angle_l	lumbar_extension	lumbar_bending	lumbar_rotation	arm_flex_r	arm_add_r	arm_rot_r	elbow_flex_r	pro_sup_r	arm_flex_l	arm_add_l	arm_rot_l	elbow_flex_l	pro_sup_l
      1.17000000	     -2.84453577	      4.05814472	     -2.22420313	      1.11613513	      0.92448064	     -0.25645055	     28.17801052	     -2.61223703	     -2.29794935	      9.23909690	      0.16125266	      5.41020198	     -0.66342850	     -7.45587800	    -10.05729870	      6.19677052	      4.09908817	      1.65250398	      0.02884164	     12.70724232	      7.12226803	     -7.45587800	    -13.54881841	     -7.55843599	     -9.07677228	    -14.19795257	     -4.48239475	    -12.06476937	     31.05527427	    100.84715448	     10.64317328	    -13.07374319	     -8.80892756	     49.10793916	    101.76442650
      1.18000000	     -2.83223061	      3.95786099	     -1.93420537	      1.12584616	      0.92297348	     -0.25711773	     27.95969453	     -2.78323589	     -4.18600422	      6.93070546	      0.12096363	      6.49933767	      3.10735647	     -7.45847273	    -10.67991100	      6.06198199	      4.12247002	      1.79522822	      0.03133264	     13.10522384	      7.58886052	     -7.45847273	    -13.60910219	     -6.79933262	     -9.37501953	    -14.26766095	     -4.50240082	    -12.92319018	     31.33215726	    101.08807009	     10.84985411	    -12.95098006	     -8.34629069	     49.96316649	    101.81594650
      1.19000000	     -2.79100183	      3.78897482	     -1.68607361	      1.13561985	      0.92149053	     -0.25764587	     27.64249496	     -2.78789829	     -5.59305582	      4.83836320	      0.08444537	      6.87323095	      5.55684077	     -7.45968035	    -11.34001497	      5.86046995	      4.12396608	      1.94089870	      0.03387507	     13.51187296	      7.81236664	     -7.45968035	    -13.70424857	     -5.96982189	     -9.64668268	    -14.24417818	     -4.58227150	    -13.44430968	     31.47317847	    101.18409756	     11.02356348	    -12.84681681	     -7.89480957	     50.79093669	    101.89116954
      1.20000000	     -3.00428247	      3.60469133	     -1.45057510	      1.14544607	      0.91961751	     -0.25812692	     27.61623587	     -2.71264678	     -6.40911808	      3.19434481	      0.05575183	      7.30775464	      6.84027663	     -7.46009952	    -11.69230829	      5.62501793	      4.17046036	      2.14896962	      0.03750660	     13.70829265	      7.94074626	     -7.46009952	    -13.47491569	     -5.09885689	     -9.82388855	    -14.25492432	     -4.74094112	    -13.73887513	     31.55163252	    101.20720177	     11.17446892	    -12.60889922	     -7.55512292	     51.42110710	    101.96000093
      1.21000000	     -2.81561377	      3.37535729	     -1.21892937	      1.15574354	      0.91818678	     -0.25869754	     27.36835640	     -2.74383902	     -8.28636505	      2.48794948	      0.04342291	      8.71361954	     10.27389460	     -7.46213388	    -12.52191129	      5.32518503	      3.75532127	      2.31575806	      0.04041760	     14.36961278	      9.04459952	     -7.46213388	    -13.71627764	     -4.12836975	    -10.04966757	    -14.24029619	     -4.73486138	    -14.97756545	     32.08101526	    101.37118532	     11.18221255	    -12.46772229	     -7.10529185	     52.35857451	    101.93924226
      1.22000000	     -2.99919969	      3.15716094	     -1.06952658	      1.16598044	      0.91629308	     -0.25908840	     27.39369754	     -2.62271455	     -8.55617014	      1.90247202	      0.03320440	      9.05060627	     10.39546228	     -7.46240072	    -12.93955784	      5.06313367	      3.69716895	      2.50378539	      0.04369930	     14.51270243	      9.06399817	     -7.46240072	    -13.49756995	     -3.19951981	    -10.12716891	    -14.18079676	     -4.96104392	    -15.16573810	     32.11462855	    101.39072281	     11.25792306	    -12.16761581	     -6.79828017	     52.80393709	    101.98525129
      1.23000000	     -2.89257988	      2.81058943	     -0.89811692	      1.17650997	      0.91475345	     -0.25947156	     27.06198413	     -2.43416712	     -8.80204156	      1.72213093	      0.03005685	      9.32130493	     10.55540795	     -7.46403981	    -13.64106703	      4.62538263	      3.24652599	      2.77590311	      0.04844865	     15.15494051	     10.03872926	     -7.46403981	    -13.63645226	     -2.07119403	    -10.25219624	    -14.09868124	     -5.02590810	    -16.24003967	     32.62239697	    101.54865364	     11.10593039	    -12.03919404	     -6.21805968	     53.73728549	    101.95001114
      1.24000000	     -2.90275376	      2.44422007	     -0.77853711	      1.18719690	      0.91310405	     -0.25982584	     26.85488224	     -2.18765217	     -8.56896934	      1.90874233	      0.03331384	      9.35780913	      9.61892597	     -7.46479479	    -14.23519131	      4.20100350	      3.07861568	      3.05351756	      0.05329394	     15.44697394	     10.26943971	     -7.46479479	    -13.62519792	     -0.91837099	    -10.27704218	    -13.92833965	     -5.23851878	    -16.68567980	     32.83730011	    101.63285830	     11.01163555	    -11.74056325	     -5.81301869	     54.27156348	    101.94952543
      1.25000000	     -3.00592110	      2.09339083	     -0.66964544	      1.19807332	      0.91141201	     -0.26019336	     26.76415376	     -1.99052874	     -8.10366794	      2.44917972	      0.04274625	      9.26747630	      9.20271035	     -7.46494260	    -14.74630407	      3.81110942	      3.14744369	      3.30649212	      0.05770917	     15.42470886	     10.32575369	     -7.46494260	    -13.46714788	      0.22942128	    -10.31693679	    -13.75721184	     -5.57141623	    -16.85407923	     32.90587328	    101.64218053	     10.93329686	    -11.40529600	     -5.57553417	     54.54256251	    101.97741021
      1.26000000	     -3.03832059	      1.51717666	     -0.62377459	      1.20913009	      0.90982066	     -0.26023308	     26.35359124	     -1.36794612	     -6.50659103	      2.67691425	      0.04672097	      7.29518221	      4.52107056	     -7.46666207	    -15.24907111	      3.16122288	      2.56591656	      3.74803310	      0.06541552	     16.00415495	     10.99596780	     -7.46666207	    -13.46639870	      1.64834031	    -10.25295725	    -13.67975303	     -5.68415429	    -18.14335657	     33.64893633	    101.83450417	     10.52248969	    -11.15040048	     -5.11811915	     55.56407072	    101.89389453
      1.27000000	     -3.09002820	      0.91403739	     -0.56331718	      1.22040260	      0.90840851	     -0.26036879	     26.08331774	     -0.79580172	     -5.63122030	      3.29329392	      0.05747882	      5.72403867	      1.74989617	     -7.46827447	    -15.75368939	      2.52166132	      2.43165239	      4.18264292	      0.07300089	     16.15088568	     10.97669009	     -7.46827447	    -13.38902017	      3.10542753	    -10.14452991	    -13.51160925	     -5.98096597	    -18.67957594	     33.98682339	    102.06279021	     10.27264133	    -10.75913827	     -4.73344720	     55.94391455	    101.77293678
      1.28000000	     -3.13820299	      0.21494698	     -0.47104599	      1.23181968	      0.90720936	     -0.26053766	     25.73725031	     -0.12496974	     -4.88224016	      3.81074389	      0.06651003	      3.80467997	     -0.97691683	     -7.47000585	    -16.23683008	      1.79964152	      2.38171910	      4.66088208	      0.08134774	     16.10426317	     10.62666221	     -7.47000585	    -13.33886783	      4.69625772	    -10.08376387	    -13.26546479	     -6.35089304	    -19.08590813	     34.28333733	    102.27130024	      9.95686805	    -10.31339092	     -4.47597609	     56.38010099	    101.65698511
      1.29000000	     -3.19216098	     -0.60710698	     -0.39489177	      1.24368051	      0.90619488	     -0.26072668	     25.44634270	      0.61956581	     -5.07140027	      4.49287351	      0.07841544	      2.84481985	     -1.70357349	     -7.47029876	    -16.72597602	      0.96912348	      2.27895792	      5.15891736	      0.09004009	     15.94538494	     10.17236789	     -7.47029876	    -13.21321746	      6.43278051	    -10.00697236	    -12.99812156	     -6.84234020	    -19.20950881	     34.40705552	    102.29481839	      9.53110833	     -9.84183691	     -4.19536673	     56.60202388	    101.67424953
      1.30000000	     -3.21534473	     -1.50378632	     -0.30220569	      1.25545620	      0.90558993	     -0.26078050	     24.71590851	      1.57718438	     -4.22073252	      4.24278764	      0.07405061	     -0.50717422	     -5.14808167	     -7.47178284	    -17.21150247	      0.07882811	      2.49968101	      5.70503397	      0.09957163	     15.56878090	      9.14667121	     -7.47178284	    -13.20046877	      8.26291673	    -10.02536806	    -12.66963440	     -7.25479233	    -19.52653856	     34.84397415	    102.40335801	      9.00937553	     -9.30961911	     -4.17009187	     57.03130999	    101.58134755
